<?xml version="1.0" encoding="UTF-8" standalone="no"?>
<svg xmlns="http://www.w3.org/2000/svg" width="800" height="600" viewBox="0 0 800 600">
  <style>
    text {
      font-family: Arial, sans-serif;
    }
    .title {
      font-size: 24px;
      font-weight: bold;
    }
    .subtitle {
      font-size: 18px;
    }
    .node-title {
      font-size: 14px;
      font-weight: bold;
    }
    .node-text {
      font-size: 12px;
    }
    .annotation {
      font-size: 12px;
      fill: #555;
    }
    .flow-arrow {
      stroke: #333;
      stroke-width: 2;
      marker-end: url(#arrow);
    }
    .data-flow {
      stroke: #0066cc;
      stroke-width: 2;
      stroke-dasharray: 5,3;
      marker-end: url(#arrow-blue);
    }
    .node {
      fill: white;
      stroke: #333;
      stroke-width: 2;
    }
    .input-node {
      fill: #e1f5fe;
      stroke: #0288d1;
    }
    .process-node {
      fill: #e8f5e9;
      stroke: #2e7d32;
    }
    .output-node {
      fill: #fff3e0;
      stroke: #e65100;
    }
  </style>
  
  <defs>
    <marker id="arrow" markerWidth="10" markerHeight="7" refX="9" refY="3.5" orient="auto">
      <polygon points="0 0, 10 3.5, 0 7" fill="#333" />
    </marker>
    <marker id="arrow-blue" markerWidth="10" markerHeight="7" refX="9" refY="3.5" orient="auto">
      <polygon points="0 0, 10 3.5, 0 7" fill="#0066cc" />
    </marker>
  </defs>

  <!-- Background -->
  <rect width="800" height="600" fill="#f9f9f9" />
  
  <!-- Title -->
  <text x="400" y="40" text-anchor="middle" class="title">복합 보정 모델 다이어그램</text>
  <text x="400" y="70" text-anchor="middle" class="subtitle">Advanced Calibration Model Architecture</text>
  
  <!-- Input Layer Nodes -->
  <rect x="50" y="130" width="140" height="70" rx="10" ry="10" class="node input-node" />
  <text x="120" y="155" text-anchor="middle" class="node-title">제1센서 데이터</text>
  <text x="120" y="175" text-anchor="middle" class="node-text">미지의 포도당 측정값</text>
  
  <rect x="250" y="130" width="140" height="70" rx="10" ry="10" class="node input-node" />
  <text x="320" y="155" text-anchor="middle" class="node-title">제2센서 데이터</text>
  <text x="320" y="175" text-anchor="middle" class="node-text">표준 용액 측정값</text>
  
  <rect x="450" y="130" width="140" height="70" rx="10" ry="10" class="node input-node" />
  <text x="520" y="155" text-anchor="middle" class="node-title">환경 데이터</text>
  <text x="520" y="175" text-anchor="middle" class="node-text">온도, 습도, 시간 등</text>
  
  <rect x="650" y="130" width="140" height="70" rx="10" ry="10" class="node input-node" />
  <text x="720" y="155" text-anchor="middle" class="node-title">과거 측정 데이터</text>
  <text x="720" y="175" text-anchor="middle" class="node-text">개인별 패턴 정보</text>
  
  <!-- Processing Layer 1 -->
  <rect x="150" y="250" width="140" height="70" rx="10" ry="10" class="node process-node" />
  <text x="220" y="275" text-anchor="middle" class="node-title">데이터 전처리</text>
  <text x="220" y="295" text-anchor="middle" class="node-text">노이즈 제거, 정규화</text>
  
  <rect x="350" y="250" width="140" height="70" rx="10" ry="10" class="node process-node" />
  <text x="420" y="275" text-anchor="middle" class="node-title">표준 용액 패턴 분석</text>
  <text x="420" y="295" text-anchor="middle" class="node-text">변화율, 시간 상수 계산</text>
  
  <rect x="550" y="250" width="140" height="70" rx="10" ry="10" class="node process-node" />
  <text x="620" y="275" text-anchor="middle" class="node-title">환경 요인 분석</text>
  <text x="620" y="295" text-anchor="middle" class="node-text">보정 계수 도출</text>
  
  <!-- Processing Layer 2 -->
  <rect x="250" y="370" width="140" height="70" rx="10" ry="10" class="node process-node" />
  <text x="320" y="395" text-anchor="middle" class="node-title">기본 보정 모델</text>
  <text x="320" y="415" text-anchor="middle" class="node-text">M₁ × (K / M₂(t))</text>
  
  <rect x="450" y="370" width="140" height="70" rx="10" ry="10" class="node process-node" />
  <text x="520" y="395" text-anchor="middle" class="node-title">복합 보정 모델</text>
  <text x="520" y="415" text-anchor="middle" class="node-text">다변수 환경 요인 보정</text>
  
  <!-- Processing Layer 3 -->
  <rect x="350" y="490" width="140" height="70" rx="10" ry="10" class="node output-node" />
  <text x="420" y="515" text-anchor="middle" class="node-title">최종 보정 결과</text>
  <text x="420" y="535" text-anchor="middle" class="node-text">정확한 포도당 농도</text>
  
  <!-- Connection Arrows - Input to Processing Layer 1 -->
  <line x1="120" y1="200" x2="190" y2="250" class="flow-arrow" />
  <line x1="320" y1="200" x2="350" y2="250" class="flow-arrow" />
  <line x1="320" y1="200" x2="250" y2="250" class="flow-arrow" />
  <line x1="520" y1="200" x2="490" y2="250" class="flow-arrow" />
  <line x1="520" y1="200" x2="590" y2="250" class="flow-arrow" />
  <line x1="720" y1="200" x2="650" y2="250" class="flow-arrow" />
  
  <!-- Connection Arrows - Processing Layer 1 to 2 -->
  <line x1="220" y1="320" x2="290" y2="370" class="flow-arrow" />
  <line x1="420" y1="320" x2="350" y2="370" class="flow-arrow" />
  <line x1="420" y1="320" x2="490" y2="370" class="flow-arrow" />
  <line x1="620" y1="320" x2="550" y2="370" class="flow-arrow" />
  
  <!-- Connection Arrows - Processing Layer 2 to 3 -->
  <line x1="320" y1="440" x2="390" y2="490" class="flow-arrow" />
  <line x1="520" y1="440" x2="450" y2="490" class="flow-arrow" />
  
  <!-- Data Flow Highlights -->
  <path d="M 120,150 C 50,150 50,420 350,420" class="data-flow" />
  <path d="M 320,150 C 250,150 250,330 400,330 C 550,330 550,420 450,420" class="data-flow" />
  
  <!-- Feedback Loop -->
  <path d="M 420,560 C 420,580 750,580 750,250 C 750,200 750,170 720,200" stroke="#ff6600" stroke-width="2" stroke-dasharray="10,4" marker-end="url(#arrow)" fill="none" />
  <text x="580" y="575" text-anchor="middle" class="annotation">피드백 루프: 지속적 모델 개선</text>
  
  <!-- Annotations -->
  <rect x="50" y="100" width="740" height="30" rx="5" ry="5" fill="#e3f2fd" opacity="0.5" />
  <text x="420" y="120" text-anchor="middle" class="annotation">입력층: 다양한 데이터 소스 통합</text>
  
  <rect x="150" y="220" width="540" height="30" rx="5" ry="5" fill="#e8f5e9" opacity="0.5" />
  <text x="420" y="240" text-anchor="middle" class="annotation">처리층 1: 데이터 분석 및 특성 추출</text>
  
  <rect x="250" y="340" width="340" height="30" rx="5" ry="5" fill="#e8f5e9" opacity="0.5" />
  <text x="420" y="360" text-anchor="middle" class="annotation">처리층 2: 보정 모델 적용</text>
  
  <rect x="350" y="460" width="140" height="30" rx="5" ry="5" fill="#fff3e0" opacity="0.5" />
  <text x="420" y="480" text-anchor="middle" class="annotation">출력층: 최종 결과</text>
</svg>
